<svg xmlns="http://www.w3.org/2000/svg" x="0px" y="0px"
width="100%" height="100%"
viewBox="0 0 172 172"
style=" fill:#000000;"><g fill="none" fill-rule="nonzero" stroke="none" stroke-width="1" stroke-linecap="butt" stroke-linejoin="miter" stroke-miterlimit="10" stroke-dasharray="" stroke-dashoffset="0" font-family="none" font-weight="none" font-size="none" text-anchor="none" style="mix-blend-mode: normal"><path d="M0,172v-172h172v172z" fill="none"></path><g id="original-icon" fill="#f1c40f"><path d="M136.912,167.184c-0.688,0 -1.376,-0.344 -1.72,-0.688l-49.192,-31.304l-49.192,31.648c-1.032,0.688 -2.752,0.688 -3.784,0c-1.032,-0.688 -1.72,-2.408 -1.376,-3.784l15.136,-56.416l-45.408,-37.152c-1.376,-1.032 -1.72,-2.408 -1.376,-3.784c0.344,-1.376 1.72,-2.408 3.096,-2.408l58.48,-3.096l21.328,-54.696c0.344,-1.032 1.72,-2.064 3.096,-2.064c1.376,0 2.752,1.032 3.096,2.064l21.328,54.696l58.48,3.096c1.376,0 2.752,1.032 3.096,2.408c0.344,1.376 0,2.752 -1.032,3.784l-45.752,37.152l14.792,56.416c0.344,1.376 0,2.752 -1.376,3.784c-0.344,0 -1.032,0.344 -1.72,0.344zM86,127.624c0,0 1.376,0.344 1.72,0.688l43.344,27.864l-13.072,-49.88c-0.344,-1.376 0,-2.752 1.032,-3.44l40.248,-33.024l-51.6,-2.752c-1.376,0 -2.408,-1.032 -3.096,-2.064l-18.576,-48.504z"></path></g></g></svg>